<svg width="42" height="42" viewBox="0 0 42 42" fill="none" xmlns="http://www.w3.org/2000/svg">
<path d="M26.8149 41.4163C24.3788 41.4163 22.4033 39.44 22.4033 37.0201V23.7306C22.4033 23.186 22.8484 22.7424 23.395 22.7424H36.7312C39.1674 22.7424 41.1428 24.7187 41.1428 27.1386V37.0124C41.1428 39.44 39.1596 41.4085 36.7312 41.4085H26.8227L26.8149 41.4163ZM24.3788 37.0201C24.3788 38.3585 25.4719 39.4477 26.8149 39.4477H36.7234C38.0664 39.4477 39.1596 38.3585 39.1596 37.0201V27.1464C39.1596 25.8081 38.0664 24.7187 36.7234 24.7187H24.3788V37.0201Z" fill="#4F4F4F"/>
<path d="M4.41158 41.416C1.97545 41.416 0 39.4397 0 37.0199V27.1461C0 24.7185 1.98326 22.75 4.41158 22.75H17.7478C18.2944 22.75 18.7395 23.1935 18.7395 23.7382V37.0277C18.7395 39.4552 16.7562 41.4238 14.3279 41.4238H4.41158V41.416ZM4.41158 24.7108C3.06859 24.7108 1.97545 25.8 1.97545 27.1384V37.0121C1.97545 38.3504 3.06859 39.4397 4.41158 39.4397H14.3201C15.6631 39.4397 16.7562 38.3504 16.7562 37.0121V24.7108H4.41158Z" fill="#4F4F4F"/>
<path d="M23.395 19.0918C22.8484 19.0918 22.4033 18.6482 22.4033 18.1035V4.81409C22.4033 2.3865 24.3866 0.417969 26.8149 0.417969H36.7234C39.1596 0.417969 41.135 2.39427 41.135 4.81409V14.6878C41.135 17.1154 39.1517 19.084 36.7234 19.084H23.3872L23.395 19.0918ZM26.8149 2.3865C25.4719 2.3865 24.3788 3.4758 24.3788 4.81409V17.1154H36.7234C38.0664 17.1154 39.1596 16.0262 39.1596 14.6878V4.81409C39.1596 3.4758 38.0664 2.3865 36.7234 2.3865H26.8149Z" fill="#4F4F4F"/>
<path d="M4.41158 19.0918C1.97545 19.0918 0 17.1154 0 14.6956V4.81409C0 2.39427 1.98326 0.417969 4.41158 0.417969H14.3201C16.7562 0.417969 18.7316 2.39427 18.7316 4.81409V18.1035C18.7316 18.6482 18.2866 19.0918 17.74 19.0918H4.41158ZM4.41158 2.3865C3.06859 2.3865 1.97545 3.4758 1.97545 4.81409V14.6878C1.97545 16.0262 3.06859 17.1154 4.41158 17.1154H16.7562V4.81409C16.7562 3.4758 15.6631 2.3865 14.3201 2.3865H4.41158Z" fill="#4F4F4F"/>
</svg>
